<svg id="Capa_1" enable-background="new 0 0 512 512" height="512" viewBox="0 0 512 512" width="512" xmlns="http://www.w3.org/2000/svg"><g><path d="m241 113.627-123.719-75.154c-6.264-3.805-13.611-4.856-20.689-2.961-7.079 1.895-12.918 6.476-16.443 12.9l-11.434 20.835 172.285 101.705z"/><path d="m431.852 48.412c-3.525-6.424-9.364-11.006-16.443-12.9-7.077-1.896-14.427-.843-20.689 2.961l-123.72 75.154v57.325l172.285-101.705z"/><path d="m256 308.493c-7.119 0-13.958-1.202-20.347-3.383l-4.825 52.848h50.346l-4.825-52.848c-6.391 2.182-13.23 3.383-20.349 3.383z"/><path d="m222.866 245.36c0 18.27 14.863 33.133 33.134 33.133s33.134-14.864 33.134-33.133c0-18.27-14.863-33.134-33.134-33.134s-33.134 14.864-33.134 33.134z"/><path d="m318.814 239.005 179.364-105.883c12.321-7.274 16.622-23.33 9.587-35.789l-13.261-23.485-202.617 119.611c14.806 10.27 25.034 26.693 26.927 45.546z"/><path d="m13.823 133.122 179.363 105.883c1.893-18.853 12.121-35.276 26.927-45.546l-202.617-119.611-13.261 23.485c-7.035 12.46-2.734 28.515 9.588 35.789z"/><path d="m475.429 404.266h-32.655v-37.49c0-25.833-13.82-50.038-36.067-63.169l-87.893-51.88c-1.283 12.758-6.38 24.408-14.131 33.788l1.863 20.403 56.853 33.561c17.166 10.134 27.829 28.811 27.829 48.744v16.044h-270.456v-16.041c0-19.935 10.665-38.613 27.833-48.746l56.848-33.551 1.864-20.412c-7.751-9.38-12.847-21.03-14.131-33.788l-87.893 51.88c-22.247 13.131-36.067 37.336-36.067 63.169v37.49h-32.655c-20.197-.002-36.571 16.372-36.571 36.569v36.571h512v-36.571c0-20.197-16.374-36.571-36.571-36.571z"/></g></svg>